<svg xmlns="http://www.w3.org/2000/svg" width="135" height="40" viewBox="0 0 135 40" fill="none">
  <g clip-path="url(#clip0_11_211)">
    <path d="M124.249 -7.3291e-06H10.7566C10.3429 -7.3291e-06 9.9342 -7.32904e-06 9.5216 0.00199267C9.17621 0.00399267 8.83358 0.00980267 8.48488 0.0146927C7.72733 0.0225945 6.97157 0.0816689 6.22416 0.191403C5.4778 0.303525 4.75482 0.514908 4.07967 0.818403C3.40534 1.12446 2.7892 1.52216 2.25357 1.99706C1.71514 2.47063 1.26632 3.01801 0.924356 3.61815C0.581453 4.2171 0.343683 4.85893 0.219258 5.52147C0.0936495 6.18318 0.0260586 6.85251 0.0170916 7.52347C0.00662229 7.83007 0.00551669 8.13769 0 8.44433V31.5586C0.00551669 31.8691 0.00662229 32.1699 0.0170916 32.4805C0.0260614 33.1514 0.0936522 33.8207 0.219258 34.4824C0.343339 35.1453 0.581124 35.7875 0.924356 36.3867C1.26616 36.9849 1.71505 37.5301 2.25357 38.001C2.78717 38.478 3.40371 38.876 4.07967 39.1797C4.75481 39.484 5.47772 39.6966 6.22416 39.8105C6.9717 39.9193 7.72738 39.9784 8.48488 39.9873C8.83358 39.9941 9.17621 39.998 9.5216 39.998C9.93419 40 10.343 40 10.7566 40H124.249C124.655 40 125.067 40 125.472 39.998C125.816 39.998 126.169 39.9941 126.512 39.9873C127.268 39.9789 128.023 39.9198 128.769 39.8105C129.518 39.6958 130.243 39.4833 130.921 39.1797C131.597 38.8758 132.213 38.4778 132.746 38.001C133.283 37.5282 133.733 36.9834 134.079 36.3867C134.42 35.7871 134.655 35.1449 134.777 34.4824C134.903 33.8206 134.973 33.1515 134.987 32.4805C134.991 32.1699 134.991 31.8691 134.991 31.5586C135 31.1953 135 30.834 135 30.4648V9.53612C135 9.16991 135 8.80663 134.991 8.44433C134.991 8.13769 134.991 7.83007 134.987 7.52343C134.973 6.85242 134.903 6.18323 134.777 5.52143C134.655 4.85927 134.419 4.2175 134.079 3.61811C133.383 2.41519 132.278 1.43602 130.921 0.818313C130.243 0.51556 129.518 0.304233 128.769 0.191313C128.023 0.0810955 127.269 0.0220004 126.512 0.0145527C126.169 0.00967267 125.816 0.00381267 125.472 0.00186267C125.067 -0.000137329 124.655 -0.000137329 124.249 -0.000137329V-7.3291e-06Z" fill="#A6A6A6"/>
    <path d="M9.43001 39.128C9.08569 39.128 8.74969 39.1241 8.40807 39.1173C7.70037 39.1091 6.99433 39.0546 6.29574 38.9542C5.64433 38.8549 5.0133 38.6702 4.42345 38.4061C3.839 38.1443 3.30594 37.801 2.84469 37.3893C2.37676 36.9825 1.98718 36.5107 1.6914 35.9925C1.39236 35.471 1.18541 34.912 1.07775 34.335C0.961494 33.715 0.898592 33.088 0.889592 32.4596C0.882427 32.2487 0.873047 31.5463 0.873047 31.5463V8.44092C0.873047 8.44092 0.883037 7.74936 0.889648 7.54619C0.898266 6.91874 0.960802 6.29278 1.07671 5.67373C1.18457 5.09513 1.39168 4.53451 1.69088 4.01128C1.98557 3.49349 2.37299 3.02131 2.8381 2.61304C3.30269 2.20089 3.83745 1.85581 4.42289 1.59036C5.01139 1.32718 5.64123 1.14378 6.29132 1.0463C6.99221 0.944847 7.7007 0.889995 8.41085 0.882208L9.43056 0.869995H125.57L126.602 0.882698C127.306 0.890099 128.008 0.944461 128.702 1.04532C129.359 1.14403 129.995 1.32871 130.59 1.59329C131.763 2.12824 132.718 2.9746 133.32 4.01372C133.614 4.53334 133.818 5.08938 133.924 5.66299C134.042 6.28712 134.107 6.918 134.121 7.55059C134.124 7.83385 134.124 8.13811 134.124 8.44092C134.133 8.816 134.133 9.173 134.133 9.53294V30.466C134.133 30.8294 134.133 31.1839 134.124 31.5414C134.124 31.8667 134.124 32.1646 134.12 32.4713C134.107 33.0926 134.042 33.7122 133.927 34.3252C133.821 34.9064 133.615 35.4697 133.316 35.9955C133.018 36.5081 132.631 36.9758 132.169 37.3815C131.707 37.7954 131.173 38.1407 130.587 38.4042C129.994 38.6703 129.358 38.8557 128.702 38.9542C128.004 39.0551 127.297 39.1097 126.59 39.1173C126.259 39.1241 125.912 39.128 125.576 39.128L124.35 39.13L9.43001 39.128Z" fill="black"/>
    <path d="M32.7973 20.3007C32.8081 19.466 33.0298 18.6476 33.4418 17.9217C33.8538 17.1957 34.4428 16.5858 35.1539 16.1486C34.7021 15.5034 34.1062 14.9725 33.4134 14.598C32.7205 14.2234 31.9499 14.0156 31.1627 13.9909C29.4835 13.8147 27.8555 14.9958 26.9998 14.9958C26.1275 14.9958 24.81 14.0084 23.3913 14.0376C22.4736 14.0673 21.5793 14.3341 20.7954 14.8122C20.0115 15.2902 19.3649 15.9632 18.9184 16.7655C16.9844 20.1139 18.427 25.035 20.2796 27.7416C21.2065 29.0669 22.2898 30.5474 23.7072 30.4949C25.0943 30.4373 25.6123 29.6104 27.2866 29.6104C28.9454 29.6104 29.4314 30.4949 30.8776 30.4615C32.366 30.4373 33.3038 29.1302 34.1981 27.7923C34.8641 26.848 35.3766 25.8043 35.7166 24.6998C34.8518 24.3341 34.1139 23.7219 33.5948 22.9396C33.0757 22.1573 32.7983 21.2395 32.7973 20.3007Z" fill="white"/>
    <path d="M30.0656 12.2109C30.8772 11.2367 31.277 9.98449 31.1802 8.72026C29.9403 8.85048 28.7951 9.44304 27.9726 10.3799C27.5704 10.8375 27.2624 11.37 27.0662 11.9467C26.87 12.5235 26.7893 13.1333 26.8289 13.7413C27.449 13.7476 28.0625 13.6132 28.6232 13.3481C29.1838 13.0831 29.6771 12.6942 30.0656 12.2109Z" fill="white"/>
    <path d="M50.3307 27.1396H45.5973L44.4606 30.4961H42.4557L46.9391 18.0781H49.0221L53.5055 30.4961H51.4664L50.3307 27.1396ZM46.0875 25.5908H49.8395L47.9899 20.1435H47.9381L46.0875 25.5908Z" fill="white"/>
    <path d="M63.1881 25.9697C63.1881 28.7832 61.6823 30.5908 59.4098 30.5908C58.8342 30.6209 58.2617 30.4883 57.7579 30.2082C57.2541 29.928 56.8394 29.5117 56.5612 29.0068H56.5182V33.4912H54.6598V21.4424H56.4586V22.9482H56.4928C56.7838 22.4458 57.2055 22.0316 57.7131 21.7497C58.2208 21.4679 58.7953 21.3289 59.3756 21.3476C61.6735 21.3477 63.1881 23.1641 63.1881 25.9697ZM61.278 25.9697C61.278 24.1367 60.3307 22.9316 58.8854 22.9316C57.4655 22.9316 56.5104 24.1621 56.5104 25.9697C56.5104 27.7939 57.4655 29.0156 58.8854 29.0156C60.3307 29.0156 61.278 27.8193 61.278 25.9697Z" fill="white"/>
    <path d="M73.153 25.9697C73.153 28.7832 71.6471 30.5908 69.3747 30.5908C68.799 30.6209 68.2265 30.4883 67.7227 30.2082C67.2189 29.928 66.8042 29.5117 66.526 29.0068H66.483V33.4912H64.6246V21.4424H66.4235V22.9482H66.4576C66.7486 22.4458 67.1703 22.0316 67.678 21.7497C68.1856 21.4679 68.7601 21.3289 69.3405 21.3476C71.6383 21.3476 73.153 23.164 73.153 25.9697ZM71.2428 25.9697C71.2428 24.1367 70.2956 22.9316 68.8502 22.9316C67.4303 22.9316 66.4752 24.1621 66.4752 25.9697C66.4752 27.7939 67.4303 29.0156 68.8502 29.0156C70.2956 29.0156 71.2428 27.8193 71.2428 25.9697H71.2428Z" fill="white"/>
    <path d="M79.7389 27.0361C79.8766 28.2676 81.0729 29.0761 82.7077 29.0761C84.2741 29.0761 85.401 28.2675 85.401 27.1572C85.401 26.1933 84.7213 25.6162 83.112 25.2207L81.5026 24.833C79.2223 24.2822 78.1637 23.2158 78.1637 21.4853C78.1637 19.3427 80.0309 17.871 82.6823 17.871C85.3063 17.871 87.1051 19.3427 87.1657 21.4853H85.2897C85.1774 20.246 84.153 19.498 82.6559 19.498C81.1588 19.498 80.1344 20.2548 80.1344 21.3564C80.1344 22.2343 80.7887 22.7509 82.3893 23.1464L83.7574 23.4823C86.3053 24.0849 87.3639 25.1083 87.3639 26.9247C87.3639 29.248 85.5133 30.703 82.5699 30.703C79.816 30.703 77.9567 29.2821 77.8365 27.036L79.7389 27.0361Z" fill="white"/>
    <path d="M91.3746 19.2998V21.4424H93.0963V22.914H91.3746V27.9053C91.3746 28.6806 91.7194 29.042 92.4762 29.042C92.6806 29.0384 92.8846 29.0241 93.0875 28.999V30.4619C92.7472 30.5254 92.4014 30.5542 92.0553 30.5478C90.2223 30.5478 89.5074 29.8593 89.5074 28.1035V22.914H88.191V21.4424H89.5074V19.2998H91.3746Z" fill="white"/>
    <path d="M94.0934 25.9697C94.0934 23.1211 95.7711 21.3311 98.3873 21.3311C101.012 21.3311 102.682 23.1211 102.682 25.9697C102.682 28.8262 101.021 30.6084 98.3873 30.6084C95.7545 30.6084 94.0934 28.8262 94.0934 25.9697ZM100.789 25.9697C100.789 24.0156 99.8932 22.8623 98.3873 22.8623C96.8815 22.8623 95.9869 24.0244 95.9869 25.9697C95.9869 27.9316 96.8815 29.0762 98.3873 29.0762C99.8932 29.0762 100.789 27.9316 100.789 25.9697H100.789Z" fill="white"/>
    <path d="M104.214 21.4424H105.987V22.9834H106.03C106.15 22.5021 106.432 22.0768 106.828 21.7789C107.225 21.481 107.712 21.3287 108.208 21.3476C108.422 21.3469 108.635 21.3701 108.844 21.417V23.1552C108.574 23.0726 108.292 23.0347 108.009 23.0429C107.739 23.032 107.47 23.0796 107.22 23.1825C106.971 23.2854 106.746 23.4411 106.562 23.639C106.378 23.8369 106.239 24.0722 106.155 24.3289C106.07 24.5856 106.042 24.8575 106.073 25.1259V30.4961H104.214L104.214 21.4424Z" fill="white"/>
    <path d="M117.413 27.8369C117.163 29.4804 115.562 30.6084 113.514 30.6084C110.88 30.6084 109.246 28.8437 109.246 26.0127C109.246 23.1728 110.889 21.331 113.436 21.331C115.941 21.331 117.516 23.0517 117.516 25.7969V26.4336H111.122V26.5459C111.092 26.8791 111.134 27.2147 111.244 27.5306C111.354 27.8464 111.53 28.1352 111.761 28.3778C111.991 28.6203 112.27 28.8111 112.58 28.9374C112.89 29.0637 113.223 29.1226 113.557 29.1103C113.996 29.1515 114.437 29.0498 114.814 28.8203C115.191 28.5909 115.483 28.246 115.648 27.8369L117.413 27.8369ZM111.13 25.1347H115.657C115.674 24.8352 115.628 24.5353 115.523 24.2541C115.419 23.9729 115.257 23.7164 115.049 23.5006C114.84 23.2849 114.589 23.1145 114.312 23.0003C114.034 22.8861 113.736 22.8305 113.436 22.8369C113.134 22.8351 112.834 22.8932 112.553 23.008C112.273 23.1227 112.019 23.2918 111.805 23.5054C111.59 23.7191 111.42 23.973 111.305 24.2527C111.189 24.5323 111.13 24.8321 111.13 25.1348V25.1347Z" fill="white"/>
    <path d="M45.8546 8.731C46.2442 8.70304 46.6352 8.7619 46.9993 8.90333C47.3634 9.04477 47.6916 9.26525 47.9602 9.54887C48.2288 9.8325 48.4311 10.1722 48.5525 10.5435C48.6739 10.9147 48.7114 11.3083 48.6622 11.6958C48.6622 13.6021 47.632 14.6978 45.8546 14.6978H43.6993V8.731H45.8546ZM44.6261 13.854H45.7511C46.0295 13.8706 46.3081 13.825 46.5666 13.7204C46.8252 13.6158 47.0571 13.4548 47.2456 13.2492C47.4341 13.0437 47.5744 12.7987 47.6563 12.5321C47.7381 12.2654 47.7595 11.9839 47.7189 11.708C47.7566 11.4332 47.733 11.1534 47.6499 10.8887C47.5668 10.6241 47.4262 10.3811 47.2381 10.1771C47.05 9.9732 46.8192 9.81339 46.5621 9.70916C46.305 9.60492 46.0281 9.55884 45.7511 9.57421H44.6261V13.854Z" fill="white"/>
    <path d="M49.7091 12.4443C49.6808 12.1484 49.7147 11.8498 49.8085 11.5678C49.9024 11.2857 50.0541 11.0264 50.2541 10.8064C50.454 10.5864 50.6977 10.4106 50.9696 10.2904C51.2414 10.1701 51.5354 10.108 51.8327 10.108C52.1299 10.108 52.4239 10.1701 52.6958 10.2904C52.9676 10.4106 53.2113 10.5864 53.4113 10.8064C53.6112 11.0264 53.763 11.2857 53.8568 11.5678C53.9507 11.8498 53.9845 12.1484 53.9562 12.4443C53.9851 12.7406 53.9516 13.0395 53.858 13.3221C53.7644 13.6046 53.6128 13.8644 53.4128 14.0848C53.2128 14.3052 52.9689 14.4814 52.6968 14.6019C52.4246 14.7224 52.1303 14.7847 51.8327 14.7847C51.5351 14.7847 51.2407 14.7224 50.9686 14.6019C50.6965 14.4814 50.4526 14.3052 50.2526 14.0848C50.0526 13.8644 49.9009 13.6046 49.8073 13.3221C49.7137 13.0395 49.6803 12.7406 49.7091 12.4443ZM53.0421 12.4443C53.0421 11.4683 52.6037 10.8975 51.8341 10.8975C51.0617 10.8975 50.6271 11.4683 50.6271 12.4443C50.6271 13.4282 51.0617 13.9946 51.8341 13.9946C52.6037 13.9946 53.0422 13.4243 53.0422 12.4443H53.0421Z" fill="white"/>
    <path d="M59.6017 14.6978H58.6798L57.7491 11.3813H57.6788L56.7521 14.6978H55.839L54.5978 10.1948H55.4991L56.3058 13.6308H56.3722L57.298 10.1948H58.1505L59.0763 13.6308H59.1466L59.9493 10.1948H60.838L59.6017 14.6978Z" fill="white"/>
    <path d="M61.882 10.1948H62.7374V10.9102H62.8038C62.9165 10.6532 63.1065 10.4379 63.3474 10.2941C63.5882 10.1502 63.868 10.0852 64.1476 10.1079C64.3667 10.0914 64.5867 10.1245 64.7913 10.2046C64.9959 10.2847 65.1798 10.4098 65.3295 10.5706C65.4792 10.7314 65.5908 10.9239 65.656 11.1337C65.7212 11.3435 65.7383 11.5654 65.7062 11.7827V14.6977H64.8175V12.0059C64.8175 11.2822 64.5031 10.9224 63.8458 10.9224C63.6971 10.9154 63.5486 10.9408 63.4105 10.9966C63.2725 11.0524 63.1481 11.1374 63.046 11.2458C62.9439 11.3542 62.8664 11.4834 62.8188 11.6245C62.7713 11.7657 62.7549 11.9154 62.7706 12.0635V14.6978H61.882L61.882 10.1948Z" fill="white"/>
    <path d="M67.1222 8.437H68.0109V14.6977H67.1222V8.437Z" fill="white"/>
    <path d="M69.2462 12.4443C69.2179 12.1484 69.2518 11.8498 69.3457 11.5677C69.4395 11.2857 69.5913 11.0263 69.7913 10.8063C69.9912 10.5863 70.235 10.4106 70.5068 10.2903C70.7787 10.17 71.0727 10.1079 71.37 10.1079C71.6673 10.1079 71.9613 10.17 72.2332 10.2903C72.505 10.4106 72.7488 10.5863 72.9487 10.8063C73.1487 11.0263 73.3005 11.2857 73.3943 11.5677C73.4882 11.8498 73.5221 12.1484 73.4938 12.4443C73.5226 12.7406 73.4891 13.0396 73.3955 13.3221C73.3019 13.6046 73.1502 13.8644 72.9502 14.0848C72.7502 14.3052 72.5062 14.4814 72.2341 14.6019C71.962 14.7224 71.6676 14.7847 71.37 14.7847C71.0724 14.7847 70.778 14.7224 70.5059 14.6019C70.2338 14.4814 69.9899 14.3052 69.7898 14.0848C69.5898 13.8644 69.4381 13.6046 69.3445 13.3221C69.2509 13.0396 69.2174 12.7406 69.2462 12.4443ZM72.5792 12.4443C72.5792 11.4683 72.1407 10.8975 71.3712 10.8975C70.5988 10.8975 70.1642 11.4683 70.1642 12.4444C70.1642 13.4282 70.5988 13.9946 71.3712 13.9946C72.1408 13.9946 72.5792 13.4243 72.5792 12.4443H72.5792Z" fill="white"/>
    <path d="M74.4293 13.4243C74.4293 12.6138 75.0328 12.1465 76.1041 12.0801L77.3239 12.0098V11.6211C77.3239 11.1455 77.0094 10.877 76.402 10.877C75.9059 10.877 75.5621 11.0591 75.4635 11.3774H74.6031C74.694 10.604 75.4215 10.1079 76.443 10.1079C77.5719 10.1079 78.2086 10.6699 78.2086 11.6211V14.6978H77.3531V14.0649H77.2828C77.1401 14.2919 76.9397 14.477 76.7021 14.6012C76.4645 14.7254 76.1981 14.7843 75.9303 14.7719C75.7413 14.7916 75.5502 14.7714 75.3694 14.7127C75.1887 14.654 75.0222 14.5581 74.8808 14.4311C74.7394 14.3042 74.6262 14.149 74.5484 13.9756C74.4706 13.8021 74.4301 13.6144 74.4293 13.4243ZM77.3239 13.0395V12.6631L76.2242 12.7334C75.6041 12.7749 75.3229 12.9858 75.3229 13.3828C75.3229 13.7881 75.6744 14.0239 76.1579 14.0239C76.2995 14.0382 76.4426 14.0239 76.5786 13.9819C76.7146 13.9398 76.8408 13.8707 76.9495 13.7789C77.0583 13.6871 77.1475 13.5743 77.2118 13.4473C77.2761 13.3202 77.3142 13.1816 77.3239 13.0395Z" fill="white"/>
    <path d="M79.3766 12.4443C79.3766 11.0215 80.108 10.1201 81.2457 10.1201C81.5271 10.1071 81.8064 10.1746 82.051 10.3144C82.2955 10.4543 82.4951 10.6609 82.6266 10.9101H82.693V8.437H83.5817V14.6977H82.7301V13.9863H82.6598C82.5182 14.2338 82.3116 14.4378 82.0623 14.5763C81.8131 14.7148 81.5307 14.7824 81.2457 14.7719C80.1002 14.772 79.3766 13.8706 79.3766 12.4443ZM80.2946 12.4443C80.2946 13.3994 80.7448 13.9741 81.4977 13.9741C82.2467 13.9741 82.7096 13.3911 82.7096 12.4482C82.7096 11.5098 82.2419 10.9185 81.4977 10.9185C80.7496 10.9185 80.2946 11.4971 80.2946 12.4443H80.2946Z" fill="white"/>
    <path d="M87.2585 12.4443C87.2301 12.1484 87.264 11.8498 87.3578 11.5678C87.4517 11.2857 87.6034 11.0264 87.8034 10.8064C88.0033 10.5864 88.247 10.4106 88.5189 10.2904C88.7907 10.1701 89.0847 10.108 89.382 10.108C89.6793 10.108 89.9732 10.1701 90.2451 10.2904C90.517 10.4106 90.7607 10.5864 90.9606 10.8064C91.1605 11.0264 91.3123 11.2857 91.4061 11.5678C91.5 11.8498 91.5338 12.1484 91.5055 12.4443C91.5344 12.7406 91.5009 13.0395 91.4073 13.3221C91.3137 13.6046 91.1621 13.8644 90.9621 14.0848C90.7621 14.3052 90.5182 14.4814 90.2461 14.6019C89.9739 14.7224 89.6796 14.7847 89.382 14.7847C89.0844 14.7847 88.79 14.7224 88.5179 14.6019C88.2458 14.4814 88.0019 14.3052 87.8019 14.0848C87.6019 13.8644 87.4502 13.6046 87.3566 13.3221C87.2631 13.0395 87.2296 12.7406 87.2585 12.4443ZM90.5915 12.4443C90.5915 11.4683 90.153 10.8975 89.3835 10.8975C88.611 10.8975 88.1765 11.4683 88.1765 12.4443C88.1765 13.4282 88.611 13.9946 89.3835 13.9946C90.153 13.9946 90.5915 13.4243 90.5915 12.4443Z" fill="white"/>
    <path d="M92.6979 10.1948H93.5533V10.9102H93.6198C93.7324 10.6532 93.9224 10.4379 94.1633 10.2941C94.4042 10.1502 94.6839 10.0852 94.9635 10.1079C95.1826 10.0914 95.4026 10.1245 95.6072 10.2046C95.8118 10.2847 95.9958 10.4098 96.1454 10.5706C96.2951 10.7314 96.4067 10.9239 96.4719 11.1337C96.5371 11.3435 96.5543 11.5654 96.5221 11.7827V14.6977H95.6334V12.0059C95.6334 11.2822 95.319 10.9224 94.6618 10.9224C94.513 10.9154 94.3645 10.9408 94.2264 10.9966C94.0884 11.0524 93.964 11.1374 93.8619 11.2458C93.7598 11.3542 93.6823 11.4834 93.6348 11.6245C93.5872 11.7657 93.5708 11.9154 93.5865 12.0635V14.6978H92.6979V10.1948Z" fill="white"/>
    <path d="M101.544 9.07373V10.2153H102.519V10.9639H101.544V13.2793C101.544 13.751 101.738 13.9575 102.18 13.9575C102.294 13.9572 102.407 13.9503 102.519 13.937V14.6772C102.36 14.7058 102.198 14.721 102.036 14.7226C101.047 14.7226 100.654 14.375 100.654 13.5068V10.9638H99.9391V10.2153H100.654V9.07373H101.544Z" fill="white"/>
    <path d="M103.733 8.437H104.614V10.9184H104.684C104.802 10.6591 104.998 10.4425 105.243 10.2982C105.489 10.1538 105.773 10.0888 106.057 10.1118C106.275 10.0999 106.493 10.1363 106.695 10.2184C106.898 10.3004 107.079 10.4261 107.227 10.5864C107.376 10.7468 107.486 10.9378 107.552 11.146C107.618 11.3541 107.637 11.5742 107.608 11.7905V14.6977H106.718V12.0097C106.718 11.2905 106.383 10.9262 105.756 10.9262C105.603 10.9137 105.449 10.9347 105.305 10.9878C105.162 11.0408 105.031 11.1247 104.923 11.2334C104.815 11.3421 104.732 11.4731 104.68 11.6173C104.628 11.7614 104.608 11.9152 104.622 12.0678V14.6977H103.733L103.733 8.437Z" fill="white"/>
    <path d="M112.79 13.4819C112.669 13.8935 112.407 14.2495 112.051 14.4876C111.694 14.7258 111.265 14.8309 110.839 14.7847C110.542 14.7925 110.247 14.7357 109.975 14.6181C109.702 14.5006 109.458 14.3252 109.26 14.1041C109.063 13.8829 108.915 13.6214 108.828 13.3375C108.742 13.0537 108.718 12.7544 108.758 12.4604C108.719 12.1656 108.743 11.8656 108.83 11.581C108.916 11.2963 109.063 11.0335 109.26 10.8104C109.457 10.5874 109.699 10.4092 109.971 10.288C110.243 10.1668 110.537 10.1054 110.835 10.1079C112.088 10.1079 112.843 10.9639 112.843 12.3779V12.688H109.664V12.7378C109.65 12.903 109.671 13.0694 109.725 13.2261C109.779 13.3829 109.865 13.5266 109.978 13.648C110.091 13.7695 110.228 13.866 110.38 13.9314C110.533 13.9968 110.697 14.0296 110.863 14.0278C111.076 14.0533 111.291 14.015 111.482 13.9178C111.672 13.8206 111.83 13.6689 111.934 13.4819L112.79 13.4819ZM109.664 12.0308H111.938C111.949 11.8796 111.929 11.7278 111.878 11.5851C111.827 11.4424 111.747 11.3119 111.642 11.2021C111.538 11.0922 111.412 11.0054 111.272 10.9472C111.132 10.889 110.981 10.8608 110.83 10.8643C110.676 10.8623 110.523 10.8912 110.381 10.9491C110.239 11.0071 110.109 11.0929 110.001 11.2016C109.892 11.3104 109.806 11.4397 109.748 11.5821C109.691 11.7245 109.662 11.8771 109.664 12.0308H109.664Z" fill="white"/>
  </g>
  <defs>
    <clipPath id="clip0_11_211">
      <rect width="135" height="40" fill="white"/>
    </clipPath>
  </defs>
</svg>